<svg id="clock" xmlns="http://www.w3.org/2000/svg" width="213.523" height="213.523" viewBox="0 0 213.523 213.523">
  <g id="Group_49515" data-name="Group 49515" transform="translate(0 0)">
    <g id="Group_49514" data-name="Group 49514">
      <path id="Path_56300" data-name="Path 56300" d="M182.254,31.27A106.762,106.762,0,0,0,31.27,182.254,106.762,106.762,0,0,0,182.254,31.27Zm-75.492,161.3a85.9,85.9,0,0,1-85.806-85.806c0-.078,0-.154,0-.231,0-.02,0-.038,0-.058s0-.065.005-.1A85.9,85.9,0,0,1,105.6,20.97c.1,0,.194-.015.293-.015.059,0,.117.007.176.009.233,0,.465-.009.7-.009a85.806,85.806,0,1,1,0,171.612Z" transform="translate(0 0)" fill="#8db837"/>
    </g>
  </g>
  <g id="Group_49517" data-name="Group 49517" transform="translate(33.839 33.792)">
    <g id="Group_49516" data-name="Group 49516">
      <path id="Path_56301" data-name="Path 56301" d="M219.242,159.153a6.317,6.317,0,0,1,0-12.635h7.615a73.3,73.3,0,0,0-67.348-65.49v6.629a6.317,6.317,0,1,1-12.635,0V81.18a73.3,73.3,0,0,0-65.68,66.211h6.819a6.317,6.317,0,1,1,0,12.635H81.142a73.289,73.289,0,0,0,66.605,66.869v-8.008a6.317,6.317,0,0,1,12.635,0v8.008a73.285,73.285,0,0,0,66.671-67.742Zm-39.6-21.794-21.105,21.106a6.317,6.317,0,0,1-8.934,0L112.86,121.727a6.317,6.317,0,0,1,8.934-8.934l32.272,32.271L170.7,128.426a6.317,6.317,0,1,1,8.933,8.934Z" transform="translate(-81.142 -81.029)"/>
    </g>
  </g>
</svg>
