<svg xmlns="http://www.w3.org/2000/svg" width="18.541" height="16.856" viewBox="0 0 18.541 16.856">
  <g id="Glyph" transform="translate(-1 -2)">
    <path id="Path_56282" data-name="Path 56282" d="M14.484,4.528a2.528,2.528,0,1,1,2.528,2.528,2.528,2.528,0,0,1-2.528-2.528ZM1.843,5.371H11.956a.843.843,0,0,0,0-1.686H1.843a.843.843,0,0,0,0,1.686ZM6.9,7.9A2.528,2.528,0,0,0,4.523,9.585H1.843a.843.843,0,0,0,0,1.686h2.68A2.528,2.528,0,1,0,6.9,7.9ZM18.7,9.585H11.956a.843.843,0,0,0,0,1.686H18.7a.843.843,0,0,0,0-1.686Zm-10.113,5.9H1.843a.843.843,0,0,0,0,1.686H8.585a.843.843,0,0,0,0-1.686Zm10.113,0h-2.68a2.528,2.528,0,1,0,0,1.686H18.7a.843.843,0,0,0,0-1.686Z" transform="translate(0 0)"/>
  </g>
</svg>
