<svg id="apps-sort" xmlns="http://www.w3.org/2000/svg" width="20" height="20" viewBox="0 0 20 20">
  <path id="Path_55931" data-name="Path 55931" d="M5.833,0h-2.5A3.333,3.333,0,0,0,0,3.333v2.5A3.333,3.333,0,0,0,3.333,9.167h2.5A3.333,3.333,0,0,0,9.167,5.833v-2.5A3.333,3.333,0,0,0,5.833,0ZM7.5,5.833A1.667,1.667,0,0,1,5.833,7.5h-2.5A1.667,1.667,0,0,1,1.667,5.833v-2.5A1.667,1.667,0,0,1,3.333,1.667h2.5A1.667,1.667,0,0,1,7.5,3.333Z"/>
  <path id="Path_55932" data-name="Path 55932" d="M5.833,13h-2.5A3.333,3.333,0,0,0,0,16.333v2.5a3.333,3.333,0,0,0,3.333,3.333h2.5a3.333,3.333,0,0,0,3.333-3.333v-2.5A3.333,3.333,0,0,0,5.833,13ZM7.5,18.833A1.667,1.667,0,0,1,5.833,20.5h-2.5a1.667,1.667,0,0,1-1.667-1.667v-2.5a1.667,1.667,0,0,1,1.667-1.667h2.5A1.667,1.667,0,0,1,7.5,16.333Z" transform="translate(0 -2.167)"/>
  <path id="Path_55933" data-name="Path 55933" d="M20.911,15.882,19,17.79V2.2L20.911,4.11a.833.833,0,1,0,1.178-1.179L19.933.779a2.5,2.5,0,0,0-3.533,0L14.244,2.931A.833.833,0,0,0,15.422,4.11L17.333,2.2V17.79l-1.911-1.908a.833.833,0,1,0-1.178,1.179L16.4,19.214a2.5,2.5,0,0,0,3.533,0l2.156-2.152a.833.833,0,0,0-1.178-1.179Z" transform="translate(-2.333 -0.008)"/>
</svg>
