<svg id="Group_47556" data-name="Group 47556" xmlns="http://www.w3.org/2000/svg" width="19.931" height="18.864" viewBox="0 0 19.931 18.864">
  <g id="attach" transform="translate(0 0)">
    <g id="Group_47552" data-name="Group 47552" transform="translate(0 0)">
      <path id="Path_55050" data-name="Path 55050" d="M18.065,15.57a6.379,6.379,0,0,0-9.011,0L1.331,23.293a4.551,4.551,0,0,0,6.436,6.436l7.08-7.08a2.731,2.731,0,1,0-3.862-3.861l-4.63,4.63A.91.91,0,1,0,7.643,24.7l4.63-4.63a.91.91,0,1,1,1.287,1.287l-7.08,7.08A2.731,2.731,0,0,1,2.619,24.58l7.724-7.723a4.551,4.551,0,1,1,6.436,6.436L9.055,31.016A.91.91,0,0,0,10.342,32.3l7.723-7.724a6.371,6.371,0,0,0,0-9.01Z" transform="translate(-0.001 -13.706)" fill="#7b7b7b"/>
    </g>
  </g>
</svg>
