<svg xmlns="http://www.w3.org/2000/svg" width="19.047" height="21.018" viewBox="0 0 19.047 21.018">
  <path id="bell" d="M19.873,11.963,18.209,5.977a8.162,8.162,0,0,0-15.831.415L1.09,12.185a4.378,4.378,0,0,0,4.274,5.328H6.34a4.378,4.378,0,0,0,8.581,0h.734a4.378,4.378,0,0,0,4.219-5.55Zm-9.242,7.3a2.627,2.627,0,0,1-2.466-1.751H13.1a2.627,2.627,0,0,1-2.466,1.751Zm7.115-4.54a2.607,2.607,0,0,1-2.092,1.038H5.364a2.627,2.627,0,0,1-2.564-3.2L4.087,6.772a6.411,6.411,0,0,1,12.434-.326l1.664,5.986a2.607,2.607,0,0,1-.44,2.292Z" transform="translate(-0.986 -0.002)" fill="#fff"/>
</svg>
