<svg xmlns="http://www.w3.org/2000/svg" width="20" height="20" viewBox="0 0 20 20">
  <path id="briefcase" d="M15.833,3.333h-.917A4.174,4.174,0,0,0,10.833,0H9.167A4.174,4.174,0,0,0,5.083,3.333H4.167A4.172,4.172,0,0,0,0,7.5v8.333A4.172,4.172,0,0,0,4.167,20H15.833A4.172,4.172,0,0,0,20,15.833V7.5a4.172,4.172,0,0,0-4.167-4.167ZM9.167,1.667h1.667A2.5,2.5,0,0,1,13.18,3.333H6.82A2.5,2.5,0,0,1,9.167,1.667ZM4.167,5H15.833a2.5,2.5,0,0,1,2.5,2.5V10H1.667V7.5A2.5,2.5,0,0,1,4.167,5ZM15.833,18.333H4.167a2.5,2.5,0,0,1-2.5-2.5V11.667h7.5V12.5a.833.833,0,0,0,1.667,0v-.833h7.5v4.167A2.5,2.5,0,0,1,15.833,18.333Z" fill="#8db837"/>
</svg>
