<svg id="_01_align_center" data-name="01 align center" xmlns="http://www.w3.org/2000/svg" width="20" height="20" viewBox="0 0 20 20">
  <path id="Path_55927" data-name="Path 55927" d="M10.833,1.667V7.5H1.667v-5A.833.833,0,0,1,2.5,1.667h8.333M12.5,0H2.5A2.5,2.5,0,0,0,0,2.5V9.167H12.5Z"/>
  <path id="Path_55928" data-name="Path 55928" d="M20.333,1.667a.833.833,0,0,1,.833.833v5h-2.5V1.667h1.667m0-1.667H17V9.167h5.833V2.5A2.5,2.5,0,0,0,20.333,0Z" transform="translate(-2.833)"/>
  <path id="Path_55929" data-name="Path 55929" d="M4.167,14.667V20.5H2.5a.833.833,0,0,1-.833-.833v-5h2.5M5.833,13H0v6.667a2.5,2.5,0,0,0,2.5,2.5H5.833Z" transform="translate(0 -2.167)"/>
  <path id="Path_55930" data-name="Path 55930" d="M19.833,14.667v5A.833.833,0,0,1,19,20.5H10.667V14.667h9.167M21.5,13H9v9.167H19a2.5,2.5,0,0,0,2.5-2.5Z" transform="translate(-1.5 -2.167)"/>
</svg>
