<svg xmlns="http://www.w3.org/2000/svg" width="169.095" height="169.101" viewBox="0 0 169.095 169.101">
  <g id="checked" transform="translate(-0.006 0.001)">
    <g id="Group_49510" data-name="Group 49510" transform="translate(0.006 -0.001)">
      <g id="Group_49509" data-name="Group 49509" transform="translate(0 0)">
        <path id="Path_56297" data-name="Path 56297" d="M165,74.589,153.463,63.056a19.613,19.613,0,0,1-4.98-12.027V34.715A14.139,14.139,0,0,0,134.39,20.622H118.076a19.6,19.6,0,0,1-12.027-4.982L94.518,4.107a14.139,14.139,0,0,0-19.928,0L63.058,15.646a19.641,19.641,0,0,1-12.027,4.982H34.724A14.134,14.134,0,0,0,20.632,34.721v16.3a19.612,19.612,0,0,1-4.98,12.027L4.119,74.586a14.134,14.134,0,0,0,0,19.933l11.533,11.533a19.621,19.621,0,0,1,4.98,12.027v16.308A14.139,14.139,0,0,0,34.724,148.48H51.032a19.612,19.612,0,0,1,12.027,4.98L74.59,164.993a14.139,14.139,0,0,0,19.928,0l11.531-11.533a19.607,19.607,0,0,1,12.027-4.98h16.314a14.134,14.134,0,0,0,14.092-14.092V118.08a19.609,19.609,0,0,1,4.98-12.027L165,94.52A14.146,14.146,0,0,0,165,74.589ZM143.5,96.09a33.591,33.591,0,0,0-9.112,21.992V134.39H118.074a33.6,33.6,0,0,0-21.989,9.11L84.552,155.033,73.019,143.5a33.614,33.614,0,0,0-21.989-9.11H34.722V118.082a33.615,33.615,0,0,0-9.11-21.991L14.079,84.551,25.612,73.012a33.588,33.588,0,0,0,9.11-21.991v-16.3H51.03a33.646,33.646,0,0,0,21.989-9.11L84.552,14.072,96.087,25.605a33.6,33.6,0,0,0,21.989,9.11H134.39V51.03A33.612,33.612,0,0,0,143.5,73.021l11.528,11.531Z" transform="translate(-0.006 0.001)"/>
      </g>
    </g>
    <g id="Group_49512" data-name="Group 49512" transform="translate(42.277 52.844)">
      <g id="Group_49511" data-name="Group 49511">
        <path id="Path_56298" data-name="Path 56298" d="M176.98,128l-43.495,43.487-21.129-21.132-9.962,9.964,31.091,31.093,53.459-53.451Z" transform="translate(-102.394 -128.001)" fill="#8db837"/>
      </g>
    </g>
  </g>
</svg>
