<svg xmlns="http://www.w3.org/2000/svg" width="20.354" height="27.708" viewBox="0 0 20.354 27.708">
  <g id="choice" transform="translate(0.001)">
    <path id="Path_55962" data-name="Path 55962" d="M18,7.653a3.1,3.1,0,0,1,6.192,0v2.5a2.1,2.1,0,0,0,1.488-2.009V2.1a2.1,2.1,0,0,0-2.1-2.1H18.608a2.1,2.1,0,0,0-2.1,2.1V8.139A2.1,2.1,0,0,0,18,10.148Zm0,0" transform="translate(-15.615)" fill="#8db837"/>
    <path id="Path_55963" data-name="Path 55963" d="M213.782,0h-4.966a2.1,2.1,0,0,0-2.1,2.1V8.139a2.1,2.1,0,0,0,2.1,2.1h4.966a2.1,2.1,0,0,0,2.1-2.1V2.1A2.1,2.1,0,0,0,213.782,0Zm0,0" transform="translate(-195.529)" fill="#8db837"/>
    <path id="Path_55964" data-name="Path 55964" d="M14.406,120.8a1.488,1.488,0,0,0-1.488,1.488v-.758a1.488,1.488,0,0,0-2.977,0v-.638a1.488,1.488,0,0,0-1.369-1.483c-.04,0-.079-.005-.12-.005a1.489,1.489,0,0,0-1.488,1.488V115.4a1.488,1.488,0,0,0-2.976,0v12.777l-.064-.008-.917-3.924a1.488,1.488,0,0,0-1.788-1.111A1.16,1.16,0,0,0,.038,124.62L1.1,129.17a12.544,12.544,0,0,0,3.434,6.284h9.042a14.088,14.088,0,0,0,2.316-7.738v-5.432A1.488,1.488,0,0,0,14.406,120.8Zm0,0" transform="translate(0 -107.746)" fill="#8db837"/>
  </g>
</svg>
