<svg xmlns="http://www.w3.org/2000/svg" width="13.641" height="13.641" viewBox="0 0 13.641 13.641">
  <g id="clock" opacity="0.5">
    <g id="Group_48914" data-name="Group 48914" transform="translate(6.292 3.164)">
      <g id="Group_48913" data-name="Group 48913">
        <path id="Path_56040" data-name="Path 56040" d="M239.128,123.639l-1.9-1.426v-2.906a.528.528,0,0,0-1.057,0v3.17a.527.527,0,0,0,.211.423l2.113,1.585a.528.528,0,0,0,.634-.845Z" transform="translate(-236.169 -118.779)" fill="#7b7b7b"/>
      </g>
    </g>
    <g id="Group_48916" data-name="Group 48916">
      <g id="Group_48915" data-name="Group 48915">
        <path id="Path_56041" data-name="Path 56041" d="M6.82,0a6.82,6.82,0,1,0,6.82,6.82A6.828,6.828,0,0,0,6.82,0Zm0,12.584A5.764,5.764,0,1,1,12.584,6.82,5.771,5.771,0,0,1,6.82,12.584Z" fill="#7b7b7b"/>
      </g>
    </g>
  </g>
</svg>
