<svg id="clock" xmlns="http://www.w3.org/2000/svg" width="15.454" height="15.454" viewBox="0 0 15.454 15.454">
  <path id="Path_56306" data-name="Path 56306" d="M7.727,0a7.727,7.727,0,1,0,7.727,7.727A7.727,7.727,0,0,0,7.727,0Zm0,14.166a6.439,6.439,0,1,1,6.439-6.439A6.439,6.439,0,0,1,7.727,14.166Z"/>
  <path id="Path_56307" data-name="Path 56307" d="M10.276,6a.644.644,0,0,0-.644.644V9.429l-2.171,1.36a.645.645,0,1,0,.684,1.095l2.473-1.545a.644.644,0,0,0,.3-.552V6.644A.644.644,0,0,0,10.276,6Z" transform="translate(-2.549 -2.136)"/>
</svg>
