<svg xmlns="http://www.w3.org/2000/svg" width="26.265" height="26.265" viewBox="0 0 26.265 26.265">
  <g id="Layer_2" data-name="Layer 2" transform="translate(-1 -1)">
    <path id="Path_56283" data-name="Path 56283" d="M14.132,1A13.132,13.132,0,1,0,27.265,14.132,13.132,13.132,0,0,0,14.132,1ZM19.2,17.51A1.194,1.194,0,1,1,17.508,19.2L14.132,15.82,10.756,19.2A1.194,1.194,0,1,1,9.068,17.51l3.376-3.377L9.068,10.755a1.194,1.194,0,1,1,1.688-1.688l3.376,3.378,3.376-3.377A1.194,1.194,0,1,1,19.2,10.755L15.82,14.132Z" fill="#7b7b7b"/>
  </g>
</svg>
