<svg xmlns="http://www.w3.org/2000/svg" width="28.081" height="28.081" viewBox="0 0 28.081 28.081">
  <path id="content-writing_1_" data-name="content-writing (1)" d="M28.081,26.984a1.1,1.1,0,0,1-1.1,1.1H14.041a1.1,1.1,0,1,1,0-2.194H26.984A1.1,1.1,0,0,1,28.081,26.984Zm-1.1-5.412H18.355a1.1,1.1,0,0,0,0,2.194h8.629a1.1,1.1,0,0,0,0-2.194Zm0-4.314H22.67a1.1,1.1,0,1,0,0,2.194h4.315a1.1,1.1,0,0,0,0-2.194Zm.776-8.914L8.344,27.76a1.1,1.1,0,0,1-.776.321H1.1a1.1,1.1,0,0,1-1.1-1.1V20.513a1.1,1.1,0,0,1,.321-.776L19.737.321a1.1,1.1,0,0,1,1.551,0L27.76,6.793A1.1,1.1,0,0,1,27.76,8.344Zm-2.327-.776L20.513,2.648,2.194,20.967v4.921H7.114Zm0,0"/>
</svg>
