<svg xmlns="http://www.w3.org/2000/svg" width="13.489" height="13.489" viewBox="0 0 13.489 13.489">
  <path id="content-writing_1_" data-name="content-writing (1)" d="M13.489,12.962a.527.527,0,0,1-.527.527H6.745a.527.527,0,1,1,0-1.054h6.218A.527.527,0,0,1,13.489,12.962Zm-.527-2.6H8.817a.527.527,0,1,0,0,1.054h4.145a.527.527,0,0,0,0-1.054Zm0-2.073H10.89a.527.527,0,0,0,0,1.054h2.073a.527.527,0,1,0,0-1.054Zm.373-4.282L4.008,13.335a.526.526,0,0,1-.373.154H.527A.527.527,0,0,1,0,12.962V9.853a.526.526,0,0,1,.154-.373L9.481.154a.527.527,0,0,1,.745,0l3.109,3.109A.527.527,0,0,1,13.335,4.008Zm-1.118-.373L9.853,1.272l-8.8,8.8v2.364H3.417Zm0,0" fill="#fff"/>
</svg>
