<svg id="_x31__x2C_5_px" enable-background="new 0 0 24 24" height="512" viewBox="0 0 24 24" width="512" xmlns="http://www.w3.org/2000/svg"><path d="m12.527 24c-.197 0-.389-.078-.53-.22-.173-.173-.251-.42-.208-.66l.53-3.005c.027-.152.1-.292.208-.4l7.425-7.425c.316-.316.651-.514.996-.585.476-.101.939.045 1.302.408l1.237 1.237c.682.683.682 1.792 0 2.475l-7.424 7.425c-.109.108-.249.182-.4.208l-3.005.53c-.044.008-.087.012-.131.012zm3.006-1.28h.01zm-1.778-2.112-.303 1.717 1.717-.303 7.257-7.258c.097-.098.097-.256 0-.354l-1.228-1.228c-.01.019-.085.066-.186.167z"/><path d="m10.01 21h-7.26c-1.517 0-2.75-1.233-2.75-2.75v-15.5c0-1.517 1.233-2.75 2.75-2.75h11.5c1.517 0 2.75 1.233 2.75 2.75v10.06c0 .414-.336.75-.75.75s-.75-.336-.75-.75v-10.06c0-.689-.561-1.25-1.25-1.25h-11.5c-.689 0-1.25.561-1.25 1.25v15.5c0 .689.561 1.25 1.25 1.25h7.26c.414 0 .75.336.75.75s-.336.75-.75.75z"/><path d="m13.25 9.5h-9.5c-.414 0-.75-.336-.75-.75s.336-.75.75-.75h9.5c.414 0 .75.336.75.75s-.336.75-.75.75z"/><path d="m9.25 13.5h-5.5c-.414 0-.75-.336-.75-.75s.336-.75.75-.75h5.5c.414 0 .75.336.75.75s-.336.75-.75.75z"/><path d="m8.25 5.5h-4.5c-.414 0-.75-.336-.75-.75s.336-.75.75-.75h4.5c.414 0 .75.336.75.75s-.336.75-.75.75z"/></svg>