<svg xmlns="http://www.w3.org/2000/svg" width="16.398" height="16.398" viewBox="0 0 16.398 16.398">
  <g id="Layer_2" data-name="Layer 2" transform="translate(-1 -1)">
    <path id="Path_56287" data-name="Path 56287" d="M9.2,1a8.2,8.2,0,1,0,8.2,8.2A8.2,8.2,0,0,0,9.2,1Zm3.162,10.308a.745.745,0,1,1-1.054,1.054L9.2,10.253,7.091,12.362a.745.745,0,1,1-1.054-1.054L8.145,9.2,6.037,7.09A.745.745,0,1,1,7.091,6.036L9.2,8.145l2.108-2.109A.745.745,0,1,1,12.361,7.09L10.253,9.2Z" fill="#7b7b7b"/>
  </g>
</svg>
