<svg xmlns="http://www.w3.org/2000/svg" width="20" height="18.333" viewBox="0 0 20 18.333">
  <path id="envelope" d="M15.833,1H4.167A4.172,4.172,0,0,0,0,5.167v10a4.172,4.172,0,0,0,4.167,4.167H15.833A4.172,4.172,0,0,0,20,15.167v-10A4.172,4.172,0,0,0,15.833,1ZM4.167,2.667H15.833A2.5,2.5,0,0,1,18.15,4.239l-6.382,6.382a2.506,2.506,0,0,1-3.537,0L1.85,4.239A2.5,2.5,0,0,1,4.167,2.667Zm11.667,15H4.167a2.5,2.5,0,0,1-2.5-2.5V6.417L7.053,11.8a4.173,4.173,0,0,0,5.893,0l5.387-5.383v8.75A2.5,2.5,0,0,1,15.833,17.667Z" transform="translate(0 -1)"/>
</svg>
