<svg id="Layer_1" enable-background="new 0 0 511.854 511.854" height="512" viewBox="0 0 511.854 511.854" width="512" xmlns="http://www.w3.org/2000/svg"><path fill="#8DB837" d="m466.185 74.687c-29.497-29.498-68.716-45.742-110.432-45.742-36.894 0-71.836 12.708-99.827 36.05-27.989-23.342-62.932-36.05-99.825-36.05-41.716 0-80.935 16.245-110.433 45.742-60.891 60.892-60.891 159.972 0 220.866l171.249 171.249c10.389 10.387 24.242 16.107 39.01 16.107s28.621-5.72 39.01-16.108l171.248-171.248c60.891-60.894 60.891-159.975 0-220.866zm-21.213 199.653-171.248 171.247c-4.722 4.722-11.042 7.322-17.797 7.322s-13.075-2.6-17.797-7.321l-171.248-171.247c-49.194-49.198-49.194-129.246-.001-178.441 23.832-23.832 55.518-36.956 89.22-36.956s65.388 13.124 89.219 36.955c5.856 5.858 15.354 5.858 21.213 0 23.832-23.832 55.518-36.956 89.221-36.956 33.702 0 65.388 13.124 89.219 36.955 49.193 49.197 49.193 129.245-.001 178.442z"/></svg>