<svg xmlns="http://www.w3.org/2000/svg" width="18.03" height="22.823" viewBox="0 0 18.03 22.823">
  <g id="file" transform="translate(-38.6)">
    <g id="Group_48910" data-name="Group 48910" transform="translate(38.6 0)">
      <g id="Group_48909" data-name="Group 48909" transform="translate(0 0)">
        <path id="Path_56033" data-name="Path 56033" d="M56.605,5.066c-.025,0-.025-.025-.05-.05s-.025-.05-.05-.075L52.234.149c-.025-.025-.075-.05-.1-.075-.025,0-.025-.025-.05-.025a.468.468,0,0,0-.2-.05H41.406A2.819,2.819,0,0,0,38.6,2.806v17.21a2.819,2.819,0,0,0,2.806,2.806H53.824a2.819,2.819,0,0,0,2.806-2.806V5.24C56.63,5.19,56.605,5.116,56.605,5.066ZM52.358,1.689l2.757,3.1H52.358Zm3.328,18.3a1.866,1.866,0,0,1-1.863,1.887H41.406a1.86,1.86,0,0,1-1.863-1.863V2.781A1.86,1.86,0,0,1,41.406.919H51.415V5.24a.472.472,0,0,0,.472.472h3.8Z" transform="translate(-38.6 0)" fill="#7b7b7b"/>
        <path id="Path_56034" data-name="Path 56034" d="M85.472,77.744h4.147a.472.472,0,0,0,.472-.472.457.457,0,0,0-.472-.472H85.472a.472.472,0,1,0,0,.944Z" transform="translate(-82.119 -72.032)" fill="#7b7b7b"/>
        <path id="Path_56035" data-name="Path 56035" d="M89.619,275.6H85.472a.472.472,0,1,0,0,.944h4.147a.472.472,0,0,0,.472-.472A.488.488,0,0,0,89.619,275.6Z" transform="translate(-82.119 -258.489)" fill="#7b7b7b"/>
        <path id="Path_56036" data-name="Path 56036" d="M85,127.672a.472.472,0,0,0,.472.472H96.548a.472.472,0,1,0,0-.944H85.472A.472.472,0,0,0,85,127.672Z" transform="translate(-82.119 -119.303)" fill="#7b7b7b"/>
        <path id="Path_56037" data-name="Path 56037" d="M96.548,164.8H85.472a.472.472,0,1,0,0,.944H96.548a.472.472,0,0,0,.472-.472A.457.457,0,0,0,96.548,164.8Z" transform="translate(-82.119 -154.568)" fill="#7b7b7b"/>
        <path id="Path_56038" data-name="Path 56038" d="M96.548,202H85.472a.472.472,0,1,0,0,.944H96.548a.472.472,0,0,0,.472-.472A.457.457,0,0,0,96.548,202Z" transform="translate(-82.119 -189.459)" fill="#7b7b7b"/>
        <path id="Path_56039" data-name="Path 56039" d="M96.548,239.2H85.472a.472.472,0,0,0,0,.944H96.548a.472.472,0,0,0,0-.944Z" transform="translate(-82.119 -224.349)" fill="#7b7b7b"/>
      </g>
    </g>
  </g>
</svg>
