<svg xmlns="http://www.w3.org/2000/svg" width="20" height="19.988" viewBox="0 0 20 19.988">
  <path id="home" d="M19.267,7.561,12.947,1.239a4.173,4.173,0,0,0-5.893,0L.732,7.561A2.482,2.482,0,0,0,0,9.329v8.181a2.5,2.5,0,0,0,2.5,2.5h15a2.5,2.5,0,0,0,2.5-2.5V9.329A2.482,2.482,0,0,0,19.267,7.561ZM12.5,18.343h-5V15.064a2.5,2.5,0,1,1,5,0Zm5.833-.833a.833.833,0,0,1-.833.833H14.167V15.064a4.167,4.167,0,1,0-8.333,0v3.278H2.5a.833.833,0,0,1-.833-.833V9.329a.84.84,0,0,1,.244-.589L8.232,2.42a2.507,2.507,0,0,1,3.537,0l6.321,6.322a.84.84,0,0,1,.244.587Z" transform="translate(0 -0.021)"/>
</svg>
