<svg id="Group_47555" data-name="Group 47555" xmlns="http://www.w3.org/2000/svg" width="13.474" height="18.864" viewBox="0 0 13.474 18.864">
  <path id="Microphone" d="M30.737,21.474a4.047,4.047,0,0,1-4.042-4.042v-5.39a4.042,4.042,0,0,1,8.085,0v5.39A4.047,4.047,0,0,1,30.737,21.474Zm0-12.127a2.7,2.7,0,0,0-2.695,2.695v5.39a2.695,2.695,0,0,0,5.39,0v-5.39A2.7,2.7,0,0,0,30.737,9.347ZM36.8,16.084a.674.674,0,0,0-.674.674v.674a5.39,5.39,0,0,1-10.779,0v-.674a.674.674,0,0,0-1.347,0v.674a6.746,6.746,0,0,0,6.063,6.7v1.382H28.716a.674.674,0,1,0,0,1.347h4.042a.674.674,0,1,0,0-1.347H31.411V24.135a6.746,6.746,0,0,0,6.063-6.7v-.674A.674.674,0,0,0,36.8,16.084Z" transform="translate(-24 -8)" fill="#7b7b7b"/>
</svg>
