<svg id="pencil_1_" data-name="pencil (1)" xmlns="http://www.w3.org/2000/svg" width="16.467" height="16.449" viewBox="0 0 16.467 16.449">
  <path id="Path_56311" data-name="Path 56311" d="M10.169,82.473l-9.06,9.061a.361.361,0,0,0-.094.165l-1,4.031a.357.357,0,0,0,.346.443.354.354,0,0,0,.086-.011l4.031-1a.356.356,0,0,0,.165-.094L13.7,86Zm0,0" transform="translate(0 -79.723)" fill="#7b7b7b"/>
  <path id="Path_56312" data-name="Path 56312" d="M339.094,1.76,338.086.752a1.826,1.826,0,0,0-2.522,0l-1.235,1.235,3.531,3.531,1.235-1.235a1.784,1.784,0,0,0,0-2.522Zm0,0" transform="translate(-323.15 -0.247)" fill="#7b7b7b"/>
</svg>
