<svg xmlns="http://www.w3.org/2000/svg" width="20" height="20" viewBox="0 0 20 20">
  <path id="play-alt" d="M15.833,20H4.167A4.172,4.172,0,0,1,0,15.833V4.167A4.172,4.172,0,0,1,4.167,0H15.833A4.172,4.172,0,0,1,20,4.167V15.833A4.172,4.172,0,0,1,15.833,20ZM4.167,1.667a2.5,2.5,0,0,0-2.5,2.5V15.833a2.5,2.5,0,0,0,2.5,2.5H15.833a2.5,2.5,0,0,0,2.5-2.5V4.167a2.5,2.5,0,0,0-2.5-2.5Zm3.618,12.5A1.973,1.973,0,0,1,6.8,13.9a1.928,1.928,0,0,1-.97-1.684V7.783A1.948,1.948,0,0,1,8.743,6.092l4.4,2.2a1.947,1.947,0,0,1,.041,3.4L8.7,13.93a1.833,1.833,0,0,1-.917.241ZM7.764,7.5a.262.262,0,0,0-.131.035.272.272,0,0,0-.14.243v4.435a.281.281,0,0,0,.417.244l4.48-2.24a.262.262,0,0,0,.1-.222.271.271,0,0,0-.141-.243l-4.4-2.2a.385.385,0,0,0-.19-.057Z"/>
</svg>
