<svg xmlns="http://www.w3.org/2000/svg" width="29" height="29" viewBox="0 0 29 29">
  <path id="play-alt" d="M22.958,29H6.042A6.049,6.049,0,0,1,0,22.958V6.042A6.049,6.049,0,0,1,6.042,0H22.958A6.049,6.049,0,0,1,29,6.042V22.958A6.049,6.049,0,0,1,22.958,29ZM6.042,2.417A3.625,3.625,0,0,0,2.417,6.042V22.958a3.625,3.625,0,0,0,3.625,3.625H22.958a3.625,3.625,0,0,0,3.625-3.625V6.042a3.625,3.625,0,0,0-3.625-3.625Zm5.247,18.131a2.861,2.861,0,0,1-1.433-.39,2.8,2.8,0,0,1-1.406-2.442V11.285a2.824,2.824,0,0,1,4.229-2.452l6.378,3.184a2.823,2.823,0,0,1,.059,4.935l-6.5,3.247a2.658,2.658,0,0,1-1.33.349Zm-.03-9.667a.379.379,0,0,0-.19.051.4.4,0,0,0-.2.353v6.431a.407.407,0,0,0,.6.354l6.5-3.248a.379.379,0,0,0,.145-.321.393.393,0,0,0-.2-.353l-6.373-3.184a.558.558,0,0,0-.275-.082Z" fill="#8db837"/>
</svg>
