<svg id="scenario" xmlns="http://www.w3.org/2000/svg" width="24" height="24" viewBox="0 0 24 24">
  <circle id="Ellipse_9" data-name="Ellipse 9" cx="0.5" cy="0.5" r="0.5" transform="translate(8)" fill="#7b7b7b"/>
  <path id="Path_55944" data-name="Path 55944" d="M23.839,14.287a8.775,8.775,0,0,0-5.757-2.153h-.738V4.219a.469.469,0,0,0-.137-.331L13.456.137A.469.469,0,0,0,13.125,0H10.782a.469.469,0,1,0,0,.938h1.875V3.75a.939.939,0,0,0,.938.938h2.813v7.469a5.931,5.931,0,0,0-2.682,10.906H.937V.937H6.562a.469.469,0,1,0,0-.938H.937A.939.939,0,0,0,0,.937V23.063A.939.939,0,0,0,.937,24H16.922a5.93,5.93,0,0,0,3.832-10.458,7.835,7.835,0,0,1,2.47,1.452.469.469,0,0,0,.615-.708ZM13.594,1.6l2.15,2.15h-2.15Zm8.324,16.467a5,5,0,1,1-5-5A5,5,0,0,1,21.917,18.067Z" transform="translate(0 0)" fill="#7b7b7b"/>
  <path id="Path_55945" data-name="Path 55945" d="M332.406,301.676A1.406,1.406,0,1,0,331,300.269,1.408,1.408,0,0,0,332.406,301.676Zm0-1.875a.469.469,0,1,1-.469.469A.469.469,0,0,1,332.406,299.8Z" transform="translate(-315.484 -284.854)" fill="#7b7b7b"/>
  <path id="Path_55946" data-name="Path 55946" d="M332.406,412a1.406,1.406,0,1,0,1.406,1.406A1.408,1.408,0,0,0,332.406,412Zm0,1.875a.469.469,0,1,1,.469-.469A.469.469,0,0,1,332.406,413.875Z" transform="translate(-315.484 -392.687)" fill="#7b7b7b"/>
  <path id="Path_55947" data-name="Path 55947" d="M275.838,355.432a1.406,1.406,0,1,0,1.406,1.406A1.408,1.408,0,0,0,275.838,355.432Zm0,1.875a.469.469,0,1,1,.469-.469A.469.469,0,0,1,275.838,357.307Z" transform="translate(-261.568 -338.771)" fill="#7b7b7b"/>
  <path id="Path_55948" data-name="Path 55948" d="M387.568,356.838a1.406,1.406,0,1,0,1.406-1.406A1.408,1.408,0,0,0,387.568,356.838Zm1.875,0a.469.469,0,1,1-.469-.469A.469.469,0,0,1,389.443,356.838Z" transform="translate(-369.401 -338.771)" fill="#7b7b7b"/>
  <path id="Path_55949" data-name="Path 55949" d="M76.25,200.234a.469.469,0,0,0-.469-.469H65.469a.469.469,0,1,0,0,.938H75.781A.469.469,0,0,0,76.25,200.234Z" transform="translate(-61.953 -190.401)" fill="#7b7b7b"/>
  <path id="Path_55950" data-name="Path 55950" d="M72.072,315.219a.469.469,0,0,0-.469-.469H65.469a.469.469,0,0,0,0,.938H71.6A.469.469,0,0,0,72.072,315.219Z" transform="translate(-61.953 -299.996)" fill="#7b7b7b"/>
  <path id="Path_55951" data-name="Path 55951" d="M73.846,257.719a.469.469,0,0,0-.469-.469H65.469a.469.469,0,0,0,0,.938h7.909A.469.469,0,0,0,73.846,257.719Z" transform="translate(-61.953 -245.191)" fill="#7b7b7b"/>
  <path id="Path_55952" data-name="Path 55952" d="M65.469,372.24a.469.469,0,1,0,0,.938h5.6a.469.469,0,1,0,0-.937Z" transform="translate(-61.953 -354.791)" fill="#7b7b7b"/>
  <path id="Path_55953" data-name="Path 55953" d="M75.781,142.276H65.469a.469.469,0,0,0,0,.938H75.781a.469.469,0,0,0,0-.937Z" transform="translate(-61.953 -135.607)" fill="#7b7b7b"/>
</svg>
