<svg xmlns="http://www.w3.org/2000/svg" width="20" height="20.18" viewBox="0 0 20 20.18">
  <g id="_01_align_center" data-name="01 align center" transform="translate(-0.107)">
    <path id="Path_55936" data-name="Path 55936" d="M12.63,20.18H7.585V17.226a7.567,7.567,0,0,1-2.4-1.384L2.629,17.321.107,12.949l2.559-1.476a7.652,7.652,0,0,1,0-2.766L.107,7.231,2.629,2.859,5.189,4.338a7.567,7.567,0,0,1,2.4-1.384V0H12.63V2.954a7.568,7.568,0,0,1,2.4,1.384l2.559-1.479,2.522,4.372L17.548,8.707a7.652,7.652,0,0,1,0,2.766l2.559,1.476-2.522,4.372-2.559-1.478a7.567,7.567,0,0,1-2.4,1.383ZM9.266,18.5h1.682V15.953l.631-.163a5.872,5.872,0,0,0,2.727-1.58l.457-.465,2.206,1.274.841-1.456-2.2-1.272.173-.627a5.926,5.926,0,0,0,0-3.153l-.173-.627,2.2-1.272-.841-1.456L14.763,6.432l-.457-.462a5.872,5.872,0,0,0-2.727-1.577l-.631-.166V1.682H9.266V4.227l-.631.163A5.872,5.872,0,0,0,5.908,5.97l-.457.465L3.246,5.158,2.4,6.614l2.2,1.272-.173.627a5.926,5.926,0,0,0,0,3.153l.173.627L2.4,13.566l.841,1.456,2.206-1.274.457.465A5.872,5.872,0,0,0,8.635,15.79l.631.163Zm.841-5.045A3.363,3.363,0,1,1,13.47,10.09,3.363,3.363,0,0,1,10.107,13.453Zm0-5.045a1.682,1.682,0,1,0,1.682,1.682A1.682,1.682,0,0,0,10.107,8.408Z"/>
  </g>
</svg>
