<svg xmlns="http://www.w3.org/2000/svg" width="20" height="19.363" viewBox="0 0 20 19.363">
  <path id="star_1_" data-name="star (1)" d="M19.868,7.361a2.65,2.65,0,0,0-2.556-1.855H13.67L12.564,2.059a2.69,2.69,0,0,0-5.123,0L6.336,5.506H2.694a2.69,2.69,0,0,0-1.584,4.861l2.964,2.167-1.127,3.49a2.69,2.69,0,0,0,4.154,3L10,16.884l2.9,2.133a2.69,2.69,0,0,0,4.153-2.993l-1.127-3.49L18.9,10.367a2.648,2.648,0,0,0,.969-3.005ZM17.915,9.021l-3.454,2.525a.833.833,0,0,0-.3.93l1.313,4.059a1.023,1.023,0,0,1-1.579,1.138l-3.4-2.5a.833.833,0,0,0-.987,0l-3.4,2.5A1.023,1.023,0,0,1,4.53,16.534l1.317-4.059a.833.833,0,0,0-.3-.93L2.091,9.021a1.023,1.023,0,0,1,.6-1.848H6.945a.833.833,0,0,0,.793-.578L9.03,2.568a1.023,1.023,0,0,1,1.947,0l1.292,4.026a.833.833,0,0,0,.793.578h4.251a1.023,1.023,0,0,1,.6,1.848Z" transform="translate(-0.008 -0.19)"/>
</svg>
