<?xml version="1.0" encoding="UTF-8"?>
<svg xmlns="http://www.w3.org/2000/svg" id="Layer_1" data-name="Layer 1" viewBox="0 0 512 512" width="512" height="512"><path d="M389.468,256a16,16,0,0,1-16,16H272V373.467a16,16,0,0,1-32,0V272H138.533a16,16,0,1,1,0-32H240V138.533a16,16,0,0,1,32,0V240H373.468A16,16,0,0,1,389.468,256ZM512,90.182V421.818A90.284,90.284,0,0,1,421.818,512H90.183A90.285,90.285,0,0,1,0,421.818V90.182A90.285,90.285,0,0,1,90.183,0H421.818A90.284,90.284,0,0,1,512,90.182Zm-32,0A58.248,58.248,0,0,0,421.818,32H90.183A58.248,58.248,0,0,0,32,90.182V421.818A58.248,58.248,0,0,0,90.183,480H421.818A58.248,58.248,0,0,0,480,421.818Z"/></svg>
