<svg id="Layer_1" height="512" viewBox="0 0 512 512" width="512" xmlns="http://www.w3.org/2000/svg" data-name="Layer 1"><path d="m334.269 285.546a12.673 12.673 0 0 1 -12.669 12.673h-83.139v83.134a12.673 12.673 0 1 1 -25.346 0v-83.134h-83.134a12.673 12.673 0 1 1 0-25.346h83.134v-83.135a12.673 12.673 0 0 1 25.346 0v83.135h83.139a12.673 12.673 0 0 1 12.669 12.673zm177.731-213.156v308.129a71.827 71.827 0 0 1 -61.426 70.974 71.826 71.826 0 0 1 -70.721 59.841h-308.129a71.8 71.8 0 0 1 -71.724-71.724v-308.129a71.827 71.827 0 0 1 61.425-70.974 71.827 71.827 0 0 1 70.722-59.841h308.129a71.8 71.8 0 0 1 71.724 71.724zm-85.77 59.091a46.43 46.43 0 0 0 -46.377-46.381h-308.129a46.43 46.43 0 0 0 -46.377 46.378v308.132a46.43 46.43 0 0 0 46.377 46.378h308.129a46.43 46.43 0 0 0 46.377-46.378zm60.423-59.091a46.43 46.43 0 0 0 -46.377-46.378h-308.129a46.45 46.45 0 0 0 -44.614 33.745h292.32a71.8 71.8 0 0 1 71.723 71.724v294.019a46.455 46.455 0 0 0 35.077-44.979z"/></svg>