<svg id="trash" xmlns="http://www.w3.org/2000/svg" width="16.521" height="19.825" viewBox="0 0 16.521 19.825">
  <path id="Path_56310" data-name="Path 56310" d="M58.362,3.3H55.8A4.138,4.138,0,0,0,51.753,0H50.1a4.138,4.138,0,0,0-4.048,3.3H43.493a.826.826,0,0,0,0,1.652h.826V15.695a4.135,4.135,0,0,0,4.13,4.13h4.956a4.135,4.135,0,0,0,4.13-4.13V4.956h.826a.826.826,0,0,0,0-1.652ZM50.1,14.043a.826.826,0,0,1-1.652,0V9.086a.826.826,0,1,1,1.652,0v4.956Zm3.3,0a.826.826,0,1,1-1.652,0V9.086a.826.826,0,0,1,1.652,0ZM47.764,3.3A2.483,2.483,0,0,1,50.1,1.652h1.652A2.483,2.483,0,0,1,54.09,3.3Z" transform="translate(-42.667)" fill="#7b7b7b"/>
</svg>
