<svg xmlns="http://www.w3.org/2000/svg" width="25.559" height="22.923" viewBox="0 0 25.559 22.923">
  <g id="upload-big-arrow" transform="translate(0 -23.714)">
    <g id="Group_48532" data-name="Group 48532" transform="translate(5.804 23.714)">
      <path id="Path_55957" data-name="Path 55957" d="M105.488,31.748h2.587v7.673a1.409,1.409,0,0,0,1.409,1.409h3.846a1.409,1.409,0,0,0,1.409-1.409V31.748h2.586a1.058,1.058,0,0,0,.748-1.806l-5.918-5.918a1.06,1.06,0,0,0-1.5,0l-5.917,5.918a1.058,1.058,0,0,0,.748,1.806Z" transform="translate(-104.431 -23.714)" fill="#8db837"/>
    </g>
    <g id="Group_48533" data-name="Group 48533" transform="translate(0 34.624)">
      <path id="Path_55958" data-name="Path 55958" d="M24.288,220.029a1.271,1.271,0,0,0-1.27,1.271v5.314A2.891,2.891,0,0,1,20.13,229.5H5.428a2.89,2.89,0,0,1-2.887-2.887V221.3A1.271,1.271,0,1,0,0,221.3v5.314a5.435,5.435,0,0,0,5.428,5.428h14.7a5.435,5.435,0,0,0,5.429-5.428V221.3A1.271,1.271,0,0,0,24.288,220.029Z" transform="translate(0 -220.029)" fill="#8db837"/>
    </g>
  </g>
</svg>
