<svg id="video" xmlns="http://www.w3.org/2000/svg" width="21.364" height="21.364" viewBox="0 0 21.364 21.364">
  <g id="object_3_">
    <g id="Group_48917" data-name="Group 48917">
      <path id="Path_56042" data-name="Path 56042" d="M17.391,0H3.973A3.978,3.978,0,0,0,0,3.973V17.391a3.978,3.978,0,0,0,3.973,3.973H17.391a3.978,3.978,0,0,0,3.973-3.973V3.973A3.978,3.978,0,0,0,17.391,0Zm2.5,3.973V5.261H16.153L13.359,1.475h4.032A2.5,2.5,0,0,1,19.889,3.973Zm-8.363-2.5L14.32,5.261H9.838L7.044,1.475ZM1.475,3.973a2.5,2.5,0,0,1,2.5-2.5H5.211L8.005,5.261H1.475ZM17.391,19.889H3.973a2.5,2.5,0,0,1-2.5-2.5V6.736H19.889V17.391A2.5,2.5,0,0,1,17.391,19.889Z" fill="#7b7b7b"/>
    </g>
    <g id="Group_48918" data-name="Group 48918" transform="translate(7.676 9.207)">
      <path id="Path_56043" data-name="Path 56043" d="M190.905,224.115l-5.834-3.368a.737.737,0,0,0-1.106.639v6.737a.737.737,0,0,0,1.106.639l5.834-3.368a.737.737,0,0,0,0-1.277Zm-5.465,2.73v-4.182l3.622,2.091Z" transform="translate(-183.965 -220.647)" fill="#7b7b7b"/>
    </g>
  </g>
</svg>
