<svg xmlns="http://www.w3.org/2000/svg" width="21.962" height="23.476" viewBox="0 0 21.962 23.476">
  <g id="woman" transform="translate(-3 -1)">
    <g id="Group_49502" data-name="Group 49502" transform="translate(8.301 4.773)">
      <path id="Path_56290" data-name="Path 56290" d="M22.68,22.337c-2.007,0-3.938-1.893-4.506-4.317A2,2,0,0,1,17,15.9a2.891,2.891,0,0,1,.189-1.022.937.937,0,0,1,.606-.53,4.725,4.725,0,0,0,2.613-3.067.321.321,0,0,1,.265-.3.378.378,0,0,1,.417.151,10.693,10.693,0,0,0,6.286,3.256.912.912,0,0,1,.8.568,2.338,2.338,0,0,1,.189.947,2.052,2.052,0,0,1-1.174,2.12C26.618,20.444,24.687,22.337,22.68,22.337Zm-1.7-10.186A5.65,5.65,0,0,1,18.022,15.1a.121.121,0,0,0-.114.114,1.28,1.28,0,0,0-.151.682c0,1.287.719,1.439.8,1.439a.462.462,0,0,1,.341.3c.454,2.423,2.31,3.938,3.787,3.938s3.332-1.515,3.787-3.938a.364.364,0,0,1,.341-.3c.076,0,.8-.151.8-1.439a1.756,1.756,0,0,0-.114-.644c-.038-.076-.076-.114-.151-.114a11.889,11.889,0,0,1-6.361-2.991Z" transform="translate(-17 -10.964)" fill="#7b7b7b"/>
    </g>
    <g id="Group_49503" data-name="Group 49503" transform="translate(21.452 19.528)">
      <path id="Path_56291" data-name="Path 56291" d="M54.862,54.88a.358.358,0,0,1-.379-.379,4.761,4.761,0,0,0-2.575-3.862A.383.383,0,1,1,52.325,50c2.537,1.628,2.916,3.521,2.916,4.506A.358.358,0,0,1,54.862,54.88Z" transform="translate(-51.731 -49.931)" fill="#7b7b7b"/>
    </g>
    <g id="Group_49504" data-name="Group 49504" transform="translate(3 19.349)">
      <path id="Path_56292" data-name="Path 56292" d="M3.379,54.586A.358.358,0,0,1,3,54.208a5.284,5.284,0,0,1,2.575-4.241,5.014,5.014,0,0,1,.757-.454.39.39,0,0,1,.379.682c-.227.151-.454.265-.682.417-1.893,1.287-2.272,2.651-2.272,3.6A.358.358,0,0,1,3.379,54.586Z" transform="translate(-3 -49.459)" fill="#7b7b7b"/>
    </g>
    <g id="Group_49505" data-name="Group 49505" transform="translate(5.385 1)">
      <path id="Path_56293" data-name="Path 56293" d="M9.679,20.576A.358.358,0,0,1,9.3,20.2,45.5,45.5,0,0,1,10.852,9.974c.189-.719.3-1.325.379-1.7.719-4.014,2.5-5.68,3.484-6.286A3.643,3.643,0,0,1,17.1,1.379,4.259,4.259,0,0,1,19.031,1c4.96,0,6.058,8.406,6.058,11.36a17.569,17.569,0,0,0,.151,1.818,20.349,20.349,0,0,1,.227,2.726.379.379,0,1,1-.757,0,18.645,18.645,0,0,0-.227-2.613c-.076-.719-.151-1.363-.151-1.931,0-2.234-.909-10.6-5.3-10.6a3.727,3.727,0,0,0-1.7.341.738.738,0,0,1-.3.038,2.613,2.613,0,0,0-1.931.454c-.871.568-2.461,2.083-3.143,5.793-.076.417-.227.984-.379,1.742A47.194,47.194,0,0,0,10.057,20.2a.379.379,0,0,1-.379.379Z" transform="translate(-9.3 -1)" fill="#7b7b7b"/>
    </g>
    <g id="Group_49506" data-name="Group 49506" transform="translate(15.874 16.146)">
      <path id="Path_56294" data-name="Path 56294" d="M41.922,49.33C37.606,49.33,37,45.506,37,41.379a.379.379,0,0,1,.757,0c0,4.089.606,6.778,3.408,7.156a3.253,3.253,0,0,1-.379-1.477A9.533,9.533,0,0,1,41.43,43.8a5.965,5.965,0,0,0,.492-2.045.379.379,0,1,1,.757,0,6.852,6.852,0,0,1-.53,2.31,8.368,8.368,0,0,0-.606,2.991,2.6,2.6,0,0,0,.644,1.628.413.413,0,0,1,.076.417.331.331,0,0,1-.341.227Z" transform="translate(-37 -41)" fill="#7b7b7b"/>
    </g>
    <g id="Group_49507" data-name="Group 49507" transform="translate(6.785 13.83)">
      <path id="Path_56295" data-name="Path 56295" d="M13.376,45.53a.331.331,0,0,1-.341-.227.346.346,0,0,1,.076-.417,2.481,2.481,0,0,0,.644-1.628,20.282,20.282,0,0,0-.227-2.916,19.267,19.267,0,0,1-.151-2.12,13.471,13.471,0,0,1,.379-3.029.386.386,0,1,1,.757.151,11.986,11.986,0,0,0-.379,2.84,17.893,17.893,0,0,0,.151,2.007,20.982,20.982,0,0,1,.227,2.991,3.253,3.253,0,0,1-.379,1.477c2.8-.379,3.408-3.067,3.408-7.156a.379.379,0,1,1,.757,0c0,4.2-.606,8.027-4.922,8.027Z" transform="translate(-12.996 -34.885)" fill="#7b7b7b"/>
    </g>
    <g id="Group_49508" data-name="Group 49508" transform="translate(11.719 21.457)">
      <path id="Path_56296" data-name="Path 56296" d="M28.288,57.288a.228.228,0,0,1-.151-.038,5.023,5.023,0,0,1-2.045-1.628.379.379,0,1,1,.606-.454,4.158,4.158,0,0,0,1.59,1.325,4.158,4.158,0,0,0,1.59-1.325.379.379,0,0,1,.606.454,5.023,5.023,0,0,1-2.045,1.628A.228.228,0,0,1,28.288,57.288Z" transform="translate(-26.026 -55.026)" fill="#7b7b7b"/>
    </g>
  </g>
</svg>
