<?xml version="1.0" encoding="utf-8"?>
<!-- Generator: Adobe Illustrator 28.1.0, SVG Export Plug-In . SVG Version: 6.00 Build 0)  -->
<svg version="1.1" id="Azerbaijan_Flag" xmlns="http://www.w3.org/2000/svg" xmlns:xlink="http://www.w3.org/1999/xlink" x="0px"
	 y="0px" viewBox="0 0 1142.4 1142.4" style="enable-background:new 0 0 1142.4 1142.4;" xml:space="preserve">
<style type="text/css">
	.st0{fill:#003896;}
	.st1{fill:#E6B012;stroke:#E6B012;stroke-width:0.3685;stroke-miterlimit:10;}
	.st2{fill-rule:evenodd;clip-rule:evenodd;fill:#FEFEFE;}
	.st3{fill:#FEFEFE;}
</style>
<g>
	<rect class="st0" width="1142.4" height="1142.4"/>
	<path class="st1" d="M37.8,491.2c0,0,181.9,324.3,522,329.5c380.5,5.3,543.9-319.9,543.9-319.9S932.3,703,703.9,746.1
		c-139.7,25.5-243.4,1.8-266.3-2.6c-23.7-5.3-105.4-31.6-157.3-58.9C159.9,620.4,37.8,491.2,37.8,491.2L37.8,491.2z"/>
	<path class="st2" d="M393.7,900.7c-2.6,0-6.2,0.9-7.9,1.8c-2.6,0-8.8,1.8-8.8,1.8c-7.9,2.6-17.6,9.7-17.6,9.7
		c-9.7,7-28.1,25.5-29,52.7c-0.9,24.6,22,36,36.9,36.9c15.8,0.9,36-8.8,51-28.1C441.1,945.5,435,901.6,393.7,900.7L393.7,900.7z
		 M396.3,879.6c0,0,23.7,0.9,36.9,5.3c15.8,5.3,27.2,14.9,35.1,27.2c6.2,10.5,14.1,27.2,3.5,53.6c-14.9,38.7-65.9,53.6-65.9,53.6
		s-36.9,9.7-69.4,1.8s-53.6-34.3-51-62.4c2.6-29,28.1-53.6,47.5-63.3c19.3-10.5,33.4-13.2,46.6-14.9
		C391,879.6,396.3,879.6,396.3,879.6L396.3,879.6z"/>
	<path class="st2" d="M147.6,846.2l-43.9,144.1c0,0,113.4,10.5,130.1-68.5c0,0,14.1-45.7-21.1-63.3
		C182.8,843.6,147.6,846.2,147.6,846.2L147.6,846.2z M111.6,817.2c0,0,35.1-0.9,87,4.4c55.4,6.2,92.3,45.7,81.7,95.8
		c-9.7,50.1-25.5,69.4-76.5,90.5c-47.5,18.5-155.5,12.3-155.5,12.3L111.6,817.2z"/>
	<path class="st2" d="M642.4,908.6h-38.7c0,0-12.3-0.9-33.4,8.8c-26.4,11.4-40.4,40.4-35.1,60.6c5.3,19.3,20.2,29,46.6,26.4
		c26.4-3.5,37.8-26.4,40.4-32.5C625.7,965.7,642.4,908.6,642.4,908.6L642.4,908.6z M697.7,886.6l-21.1,70.3c0,0-14.1,51.8-29.9,80.8
		c-16.7,29.9-40.4,51-88.8,56.2c-49.2,6.2-87-16.7-87-16.7l11.4-24.6c0,0,33.4,21.1,75.6,12.3c41.3-8.8,52.7-51,52.7-51
		s-3.5,2.6-13.2,6.2c-9.7,3.5-27.2,6.2-49.2,6.2c-22-0.9-61.5-23.7-59.8-58.9c1.8-34.3,20.2-52.7,47.5-67.7
		c27.2-14.1,66.8-14.1,66.8-14.1L697.7,886.6z"/>
	<path class="st2" d="M847.1,913.9l-47.5-1.8c0,0-48.3,0.9-58.9,48.3c-9.7,44.8,41.3,61.5,72.1,30.8c0,0,8.8-8.8,12.3-16.7
		C828.7,966.6,847.1,913.9,847.1,913.9L847.1,913.9z M903.3,888.4l-43.1,139.7h-49.2l5.3-17.6c0,0-23.7,17.6-51,16.7
		c-27.2,0-47.5-4.4-65.9-32.5c-18.5-29,4.4-75.6,38.7-92.3c22.8-11.4,40.4-14.1,60.6-14.1C815.5,887.5,903.3,888.4,903.3,888.4
		L903.3,888.4z"/>
	<path class="st3" d="M931.5,888.4l-41.3,139.7h47.5l36-113.4h42.2c0,0,21.1,0.9,27.2,14.1c6.2,14.1,3.5,22,1.8,28.1
		s-22,72.1-22,72.1h47.5l21.1-66.8c0,0,7.9-28.1-3.5-43.9c-9.7-14.9-23.7-23.7-43.9-26.4c-22-2.6-31.6-1.8-31.6-1.8L931.5,888.4z"/>
</g>
</svg>
